<svg xmlns="http://www.w3.org/2000/svg" viewBox="0 0 78.04 78.04"><defs><style>.cls-1{fill:#fff;}.cls-2{fill:none;}</style></defs><g id="Layer_2" data-name="Layer 2"><g id="text"><path class="cls-1" d="M66.24,19.71l-3.73,3.14a24.4,24.4,0,0,1-.71,32.27l3.58,3.41a29.27,29.27,0,0,0,.86-38.73Z"/><path class="cls-1" d="M52.63,29.27a14.62,14.62,0,0,1-.44,19.36L55.78,52a19.53,19.53,0,0,0,.56-25.83Z"/><path class="cls-1" d="M43.9,73.16a2.4,2.4,0,0,1-1.73-.73L23.58,53.65H7.32a2.44,2.44,0,0,1-2.44-2.44h0V26.83a2.44,2.44,0,0,1,2.44-2.44H23.58L42.17,5.61a2.45,2.45,0,0,1,4.17,1.71V70.73A2.43,2.43,0,0,1,43.9,73.16ZM9.76,48.78H24.58a2.4,2.4,0,0,1,1.73.73L41.46,64.8V13.24L26.31,28.53a2.45,2.45,0,0,1-1.73.74H9.76Z"/><rect id="_Transparent_Rectangle_" data-name="&lt;Transparent Rectangle&gt;" class="cls-2" width="78.04" height="78.04"/></g></g></svg>