<svg xmlns="http://www.w3.org/2000/svg" viewBox="0 0 66.4 24.62"><defs><style>.cls-1{fill:#fff;}</style></defs><g id="Layer_2" data-name="Layer 2"><g id="text"><path id="IBM_" data-name="IBM®" class="cls-1" d="M63.77,23.26a1.32,1.32,0,1,1,1.31,1.36A1.32,1.32,0,0,1,63.77,23.26Zm2.32.09v-.17a1,1,0,0,0-2,0v.17a1,1,0,0,0,2,0ZM64.88,24h-.33V22.59h.62a.45.45,0,0,1,.22.85l.31.52h-.37l-.25-.47h-.2Zm.25-.72c.11,0,.17,0,.17-.15V23c0-.1-.06-.15-.17-.15h-.25v.39ZM0,23H12v1.57H0Zm0-1.72H12V19.7H0ZM3.44,18H8.6V16.42H3.44Zm0-3.28H8.6V13.13H3.44Zm0-3.29H8.6V9.85H3.44ZM8.6,6.57H3.44V8.13H8.6ZM0,4.85H12V3.28H0ZM0,1.56H12V0H0ZM13.76,23v1.57H26.42A6.48,6.48,0,0,0,30.67,23Zm0-3.28v1.56H32.11a6.51,6.51,0,0,0,.65-1.56Zm3.44-3.28V18h5.16V16.42Zm0-6.57h0v1.56H30.85a6.79,6.79,0,0,0,1.26-1.56Zm15.56-5a6.58,6.58,0,0,0-.65-1.57H13.76V4.85h19ZM17.2,6.57V8.13h5.16V6.57Zm10,1.56H32.8A6.66,6.66,0,0,0,33,6.57H27.21Zm0,8.29V18H33a6.66,6.66,0,0,0-.19-1.56Zm3.64-3.29H17.2V14.7H32.11A6.85,6.85,0,0,0,30.85,13.13ZM30.67,1.56A6.53,6.53,0,0,0,26.42,0H13.76V1.56H30.67Zm3.73,23H43V23H34.4Zm0-3.29H43V19.7H34.4ZM37.84,18H43V16.42H37.84Zm0-3.28H43V13.13H37.84Zm15.48,9.85h8.6V23h-8.6Zm0-3.29h8.6V19.7h-8.6Zm0-3.28h5.16V16.42H53.32Zm5.16-4.85H53.32V14.7h5.16Zm-5.16-1.72h5.16V9.85H48.8l-.54,1.56h4.53l.53-1.49Zm5.16-4.84H49.94L49.4,8.13h9.08ZM52.22,0l-.54,1.56H61.92V0ZM48.16,24.54,48.71,23h-1.1ZM47,21.26h2.31l.55-1.56H46.45ZM45.84,18h4.63L51,16.42H45.29ZM44.68,14.7h7l.55-1.57h-8ZM37.84,8.13h9.07l-.54-1.56H37.84Zm12.7-3.28H61.92V3.28H51.08ZM45.23,3.28H34.4V4.85H45.77ZM44.09,0H34.4V1.56H44.63Zm4,11.41-.54-1.56H37.84v1.56H43V9.93l.52,1.48Z"/></g></g></svg>