<?xml version="1.0" encoding="utf-8"?>
<!-- Generator: Adobe Illustrator 25.2.1, SVG Export Plug-In . SVG Version: 6.00 Build 0)  -->
<svg version="1.1" id="Layer_1" xmlns="http://www.w3.org/2000/svg" xmlns:xlink="http://www.w3.org/1999/xlink" x="0px" y="0px"
	 viewBox="0 0 66.4 24.6" style="enable-background:new 0 0 66.4 24.6;" xml:space="preserve">
<g id="Layer_2_1_">
	<g id="text">
		<path id="IBM_" d="M63.8,23.3c0-0.7,0.6-1.3,1.4-1.3c0.7,0,1.3,0.6,1.3,1.4c0,0.7-0.6,1.3-1.3,1.3C64.4,24.6,63.8,24,63.8,23.3
			C63.8,23.3,63.8,23.3,63.8,23.3z M66.1,23.4v-0.2c0-0.6-0.4-1-1-1s-1,0.4-1,1v0.2c0,0.6,0.4,1,1,1S66.1,23.9,66.1,23.4z M64.9,24
			h-0.3v-1.4h0.6c0.2,0,0.5,0.2,0.5,0.4c0,0.2-0.1,0.3-0.2,0.4l0.3,0.5h-0.4l-0.2-0.5h-0.2V24z M65.1,23.3c0.1,0,0.2,0,0.2-0.1V23
			c0-0.1-0.1-0.1-0.2-0.1h-0.2v0.4L65.1,23.3z M0,23h12v1.6H0V23z M0,21.3h12v-1.6H0V21.3z M3.4,18h5.2v-1.6H3.4V18z M3.4,14.7h5.2
			v-1.6H3.4V14.7z M3.4,11.4h5.2V9.9H3.4V11.4z M8.6,6.6H3.4v1.6h5.2V6.6z M0,4.8h12V3.3H0V4.8z M0,1.6h12V0H0V1.6z M13.8,23v1.6
			h12.7c1.6,0,3.1-0.6,4.2-1.6H13.8z M13.8,19.7v1.6h18.4c0.3-0.5,0.5-1,0.7-1.6H13.8z M17.2,16.4V18h5.2v-1.6L17.2,16.4z M17.2,9.9
			L17.2,9.9v1.6h13.6c0.5-0.5,0.9-1,1.3-1.6H17.2z M32.8,4.9c-0.1-0.5-0.4-1.1-0.7-1.6H13.8v1.6L32.8,4.9L32.8,4.9z M17.2,6.6v1.6
			h5.2V6.6H17.2z M27.2,8.1h5.6c0.1-0.5,0.2-1,0.2-1.6h-5.8L27.2,8.1z M27.2,16.4V18H33c0-0.5-0.1-1-0.2-1.6L27.2,16.4z M30.8,13.1
			H17.2v1.6h14.9C31.8,14.1,31.3,13.6,30.8,13.1L30.8,13.1z M30.7,1.6C29.5,0.5,28,0,26.4,0H13.8v1.6H30.7z M34.4,24.6H43V23h-8.6
			V24.6z M34.4,21.3H43v-1.6h-8.6V21.3z M37.8,18H43v-1.6h-5.2V18z M37.8,14.7H43v-1.6h-5.2V14.7z M53.3,24.6h8.6V23h-8.6V24.6z
			 M53.3,21.3h8.6v-1.6h-8.6V21.3z M53.3,18h5.2v-1.6h-5.2V18z M58.5,13.1h-5.2v1.6h5.2V13.1z M53.3,11.4h5.2V9.9h-9.7l-0.5,1.6h4.5
			l0.5-1.5L53.3,11.4z M58.5,6.6h-8.5l-0.5,1.5h9.1L58.5,6.6z M52.2,0l-0.5,1.6h10.2V0H52.2z M48.2,24.5l0.5-1.5h-1.1L48.2,24.5z
			 M47,21.3h2.3l0.5-1.6h-3.4L47,21.3z M45.8,18h4.6l0.5-1.6h-5.7L45.8,18z M44.7,14.7h7l0.5-1.6h-8L44.7,14.7z M37.8,8.1h9.1
			l-0.5-1.6h-8.5V8.1z M50.5,4.9h11.4V3.3H51.1L50.5,4.9z M45.2,3.3H34.4v1.6h11.4L45.2,3.3z M44.1,0h-9.7v1.6h10.2L44.1,0z
			 M48.1,11.4l-0.5-1.6h-9.7v1.6H43V9.9l0.5,1.5H48.1z"/>
	</g>
</g>
</svg>
