<svg xmlns="http://www.w3.org/2000/svg" viewBox="0 0 562.04 259.63"><defs><style>.cls-1{fill:#fff;}</style></defs><g id="Layer_2" data-name="Layer 2"><g id="text"><path class="cls-1" d="M10.56,42.92,0,2.44H2.26l9.63,37.69h.17L22.39,2.44h2.78L35.5,40.13h.17L45.41,2.44h2.21L37,42.92H34.28L23.84,4.81h-.18L13.17,42.92Z"/><path class="cls-1" d="M53.59,28.19c0-9.92,4.7-15.43,12.41-15.43,7.25,0,12.13,5.74,12.13,14.62v.92H55.74v1.57c0,7.19,3.88,12,10.5,12,4.64,0,7.94-2.32,9.68-6.73l1.57.87a11.37,11.37,0,0,1-11.25,7.65C58.46,43.61,53.59,38.16,53.59,28.19Zm2.15-1.74v.23H75.92v-.35c0-7.08-4-11.77-9.92-11.77C59.57,14.56,55.74,19.25,55.74,26.45Z"/><path class="cls-1" d="M91.18,42.92a2.2,2.2,0,0,1-2.5-2.44V0h2V41.12h4.82v1.8Z"/><path class="cls-1" d="M102.43,28.19c0-10,4.64-15.43,12.47-15.43a10.31,10.31,0,0,1,9.91,6.09l-1.68.87c-1.68-3.31-4.17-5.16-8.23-5.16-6.61,0-10.27,4.69-10.27,11.94v3.37c0,7.25,3.66,12,10.27,12a9.35,9.35,0,0,0,8.87-5.16l1.51,1c-1.92,3.54-5.16,5.91-10.38,5.91C107.07,43.61,102.43,38.16,102.43,28.19Z"/><path class="cls-1" d="M131.83,28.19c0-10,4.76-15.43,12.47-15.43s12.47,5.39,12.47,15.43S152,43.61,144.3,43.61,131.83,38.16,131.83,28.19Zm22.74,1.56V26.62c0-7.54-3.77-12.06-10.27-12.06S134,19.08,134,26.62v3.13c0,7.48,3.77,12.07,10.26,12.07S154.57,37.23,154.57,29.75Z"/><path class="cls-1" d="M167.33,42.92V13.46h2V18h.17c1.16-2.73,3.66-5.22,8.7-5.22,4.58,0,8,2.15,9.22,6.38h.18c1.1-3.65,4.17-6.38,9.51-6.38,6.44,0,10,3.94,10,11.25V42.92h-2V24.3c0-6.61-2.85-9.74-8.36-9.74-4.52,0-8.46,2.49-8.46,7.48V42.92h-2V24.3c0-6.67-3-9.74-8.36-9.74-4.46,0-8.52,2.43-8.52,7.42V42.92Z"/><path class="cls-1" d="M217.21,28.19c0-9.92,4.7-15.43,12.41-15.43,7.25,0,12.12,5.74,12.12,14.62v.92H219.35v1.57c0,7.19,3.89,12,10.5,12,4.64,0,8-2.32,9.69-6.73l1.56.87a11.36,11.36,0,0,1-11.25,7.65C222.08,43.61,217.21,38.16,217.21,28.19Zm2.14-1.74v.23h20.19v-.35c0-7.08-4-11.77-9.92-11.77C223.18,14.56,219.35,19.25,219.35,26.45Z"/><path class="cls-1" d="M271.21,42.92a2.2,2.2,0,0,1-2.5-2.44V15.25h-5.33V13.46h3.82c1.28,0,1.63-.53,1.63-1.8V5.1h1.91v8.36h6.9v1.79h-6.9V41.12h6.44v1.8Z"/><path class="cls-1" d="M284.66,28.19c0-10,4.76-15.43,12.47-15.43s12.47,5.39,12.47,15.43-4.75,15.42-12.47,15.42S284.66,38.16,284.66,28.19Zm22.74,1.56V26.62c0-7.54-3.77-12.06-10.27-12.06s-10.26,4.52-10.26,12.06v3.13c0,7.48,3.77,12.07,10.26,12.07S307.4,37.23,307.4,29.75Z"/><path class="cls-1" d="M19.52,142.92c-8.52,0-13-4.43-13-12.79V108.65H.3V99H3.39c3.34,0,4.35-1.67,4.35-4.68V87.18H18.85V99h8.69v9.61H18.85v24.66h8v9.61Z"/><path class="cls-1" d="M38.24,81.08H50.61v25.4h.5c1.59-4.6,5.26-8.44,12.2-8.44C72.25,98,77,104.39,77,115.42v27.5H64.65V116.43c0-5.6-1.59-8.36-6.1-8.36-4,0-7.94,2.09-7.94,6.43v28.42H38.24Z"/><path class="cls-1" d="M89.13,88.26V86.42c0-3.51,2.17-6.1,7.19-6.1s7.18,2.59,7.18,6.1v1.84c0,3.51-2.17,6.1-7.18,6.1S89.13,91.77,89.13,88.26Zm1,10.78H102.5v43.88H90.13Z"/><path class="cls-1" d="M116.12,142.92V99h12.37v7.44h.5c1.59-4.6,5.27-8.44,12.2-8.44,8.95,0,13.71,6.35,13.71,17.38v27.5H142.53V116.43c0-5.6-1.59-8.36-6.1-8.36-4,0-7.94,2.09-7.94,6.43v28.42Z"/><path class="cls-1" d="M168,81.08h12.37V117.6h.5l5.43-8.11L195.1,99h13.7l-14.62,16.8,16.29,27.08H195.76l-9.86-18.55-5.51,6.18v12.37H168Z"/><path class="cls-1" d="M257.1,142.92H218.83v-7.19l19-17.55c5.43-5,9.61-10.86,9.61-16.46v-1c0-6.43-3.59-10.86-10.78-10.86s-10.53,4.35-12.12,9.86l-6.26-2.42c2.25-6.85,7.43-13.71,18.72-13.71s17.88,7,17.88,17c0,9-5.35,15.37-12.79,22.06l-15.71,14.12H257.1Z"/><path class="cls-1" d="M269.8,113.75c0-19,6.1-30.17,20.06-30.17s20.06,11.12,20.06,30.17-6.1,30.17-20.06,30.17S269.8,132.81,269.8,113.75Zm32.76,4.77V109c0-11.28-3.59-19.31-12.7-19.31s-12.7,8-12.7,19.31v9.53c0,11.28,3.59,19.3,12.7,19.3S302.56,129.8,302.56,118.52Z"/><path class="cls-1" d="M361.56,142.92H323.29v-7.19l19-17.55c5.43-5,9.61-10.86,9.61-16.46v-1c0-6.43-3.59-10.86-10.78-10.86s-10.53,4.35-12.12,9.86l-6.27-2.42c2.26-6.85,7.44-13.71,18.72-13.71s17.89,7,17.89,17c0,9-5.35,15.37-12.79,22.06l-15.71,14.12h30.67Z"/><path class="cls-1" d="M376.6,142.92v-6.19h16.3v-47h-.59l-14.71,13.7L373.51,99,389,84.58h10.95v52.15h15v6.19Z"/><path class="cls-1" d="M43.59,242.92l-6.77-19h-26l-6.77,19H.88l21-58.34h4l21,58.34ZM24,187.59h-.34L11.66,221.27H36Z"/><path class="cls-1" d="M63.22,242.92H60.13V184.58H82.78c9.69,0,15,6.11,15,15.88,0,9.36-4.85,15.38-14,15.8l15.46,26.66H95.65L80.44,216.43H63.22Zm19.56-29.17c7.86,0,11.62-5.26,11.62-11.36v-3.68c0-6.1-3.76-11.37-11.62-11.37H63.22v26.41Z"/><path class="cls-1" d="M132.92,221.69c0-14.29,6.77-22.23,17.88-22.23,10.45,0,17.47,8.27,17.47,21.06v1.34H136v2.26c0,10.36,5.6,17.21,15.13,17.21,6.68,0,11.45-3.34,14-9.69l2.26,1.25c-2.51,6.69-8.11,11-16.21,11C139.94,243.92,132.92,236.07,132.92,221.69Zm3.09-2.51v.34h29.08V219c0-10.2-5.76-17-14.29-17C141.53,202.05,136,208.82,136,219.18Z"/><path class="cls-1" d="M192.67,221.52l-15.29-21.06h3.42l13.46,18.64h.16L208,200.46h3.35L196,221.36l15.71,21.56H208.3l-13.88-19.14h-.16l-14,19.14h-3.35Z"/><path class="cls-1" d="M224.76,200.46h2.92v6.61h.25c1.84-4.1,6.36-7.61,13.46-7.61,11,0,17.63,7.69,17.63,22.23s-6.6,22.23-17.63,22.23c-7.1,0-11.53-3.59-13.46-7.6h-.25v23.31h-2.92Zm31.09,23.66v-4.85c0-10.53-5.43-17.22-14.88-17.22-7.1,0-13.29,4.35-13.29,10.62v17.88c0,6.44,6.19,10.7,13.29,10.7C250.42,241.25,255.85,234.65,255.85,224.12Z"/><path class="cls-1" d="M270.64,221.69c0-14.29,6.77-22.23,17.88-22.23,10.45,0,17.47,8.27,17.47,21.06v1.34H273.73v2.26c0,10.36,5.6,17.21,15.12,17.21,6.69,0,11.45-3.34,14-9.69l2.26,1.25c-2.51,6.69-8.11,11-16.22,11C277.66,243.92,270.64,236.07,270.64,221.69Zm3.09-2.51v.34h29.08V219c0-10.2-5.77-17-14.29-17C279.24,202.05,273.73,208.82,273.73,219.18Z"/><path class="cls-1" d="M321.19,242.92V200.46h2.93v7.44h.33c1.84-4,5.44-7.44,13-7.44h3.18v2.76H337c-6.94,0-12.87,3.6-12.87,10.53v29.17Z"/><path class="cls-1" d="M351.28,185.17v-.75c0-1.17.67-2.17,2.42-2.17s2.51,1,2.51,2.17v.75c0,1.17-.67,2.17-2.43,2.17S351.28,186.34,351.28,185.17Zm1,15.29h2.93v42.46h-2.93Z"/><path class="cls-1" d="M370.41,221.69c0-14.29,6.77-22.23,17.89-22.23,10.44,0,17.46,8.27,17.46,21.06v1.34H373.5v2.26c0,10.36,5.6,17.21,15.13,17.21,6.69,0,11.45-3.34,14-9.69l2.25,1.25c-2.5,6.69-8.1,11-16.21,11C377.43,243.92,370.41,236.07,370.41,221.69Zm3.09-2.51v.34h29.09V219c0-10.2-5.77-17-14.29-17C379,202.05,373.5,208.82,373.5,219.18Z"/><path class="cls-1" d="M421,242.92V200.46h2.93V207h.25c1.67-4.09,5.68-7.52,13-7.52,9.28,0,14.46,5.68,14.46,16.21v27.25h-2.92V216.18c0-9.7-4.35-14.13-12.2-14.13-6.52,0-12.62,3.51-12.62,10.7v30.17Z"/><path class="cls-1" d="M466.18,221.69c0-14.46,6.69-22.23,18-22.23,7.1,0,11.78,3.51,14.29,8.78L496,209.49c-2.43-4.76-6-7.44-11.87-7.44-9.53,0-14.79,6.77-14.79,17.22v4.85c0,10.44,5.26,17.21,14.79,17.21,6.27,0,10.19-2.76,12.79-7.44l2.17,1.51c-2.76,5.1-7.44,8.52-15,8.52C472.87,243.92,466.18,236.07,466.18,221.69Z"/><path class="cls-1" d="M508.55,221.69c0-14.29,6.77-22.23,17.89-22.23,10.44,0,17.46,8.27,17.46,21.06v1.34H511.64v2.26c0,10.36,5.6,17.21,15.13,17.21,6.69,0,11.45-3.34,14-9.69l2.25,1.25c-2.51,6.69-8.1,11-16.21,11C515.57,243.92,508.55,236.07,508.55,221.69Zm3.09-2.51v.34h29.09V219c0-10.2-5.77-17-14.29-17C517.16,202.05,511.64,208.82,511.64,219.18Z"/><path class="cls-1" d="M556.18,240.75V240a2.94,2.94,0,0,1,5.86,0v.76a2.94,2.94,0,0,1-5.86,0Z"/></g></g></svg>