<?xml version="1.0" encoding="utf-8"?>
<!-- Generator: Adobe Illustrator 25.2.1, SVG Export Plug-In . SVG Version: 6.00 Build 0)  -->
<svg version="1.1" id="Layer_1" xmlns="http://www.w3.org/2000/svg" xmlns:xlink="http://www.w3.org/1999/xlink" x="0px" y="0px"
	 viewBox="0 0 175.5 25.2" style="enable-background:new 0 0 175.5 25.2;" xml:space="preserve">
<g id="Layer_2_1_">
	<g id="text">
		<path d="M9.9,24.8c-3.5,0-5.2-2-5.2-4.9v-8.3H0V7.8h3c1.4,0,2-0.5,2-2v-4h4.5v6h6.6v3.8H9.5V21h6.6v3.8L9.9,24.8z"/>
		<path d="M20.6,0.4h4.9v10.5h0.2c0.7-2.1,2.7-3.6,5-3.5c3.3,0,5.5,2.3,5.5,6.4v11h-4.9V14.4c0-2.2-1-3.3-2.9-3.3
			c-1.5,0-3,0.8-3,2.5v11.2h-4.9V0.4z"/>
		<path d="M41.4,21h5.4v-9.4h-5.4V7.8h10.3V21h5v3.8H41.4V21z M46.3,3.3v-1C46.3,1,47.1,0,49.2,0s2.9,1,2.9,2.3v1
			c0,1.3-0.8,2.3-2.9,2.3S46.3,4.6,46.3,3.3z"/>
		<path d="M60.2,24.8v-17h4.9v3.1h0.2c0.7-2.1,2.7-3.6,5-3.5c3.3,0,5.6,2.3,5.6,6.4v11H71V14.4c0-2.2-1-3.3-2.9-3.3
			c-1.5,0-3,0.8-3,2.5v11.2H60.2z"/>
		<path d="M80.1,0.4H85v13.9h0.2l2.3-2.7L91,7.8h5.6L90,14.5l7.3,10.3h-5.8l-5-7.5L85,18.9v5.9h-4.9V0.4z"/>
		<path d="M115.5,24.8h-15.4V22l7.7-7c2.2-2,3.9-4.2,3.9-6.5V8.1c0-2.8-1.5-4.4-4.3-4.4s-4.2,1.5-5,3.9l-2.4-0.9
			c0.9-3.4,4-5.6,7.5-5.4c4.6,0,7.2,2.8,7.2,6.7c0,3.5-2.1,6.1-5.2,8.8l-6.4,5.6h12.5V24.8z"/>
		<path d="M119.4,13.3c0-7.5,2.4-11.9,8.1-11.9c5.6,0,8.1,4.4,8.1,11.9s-2.4,11.9-8.1,11.9S119.4,20.8,119.4,13.3z M132.6,15.2v-3.8
			c0-4.6-1.5-7.6-5.1-7.6s-5.1,3-5.1,7.6v3.8c0,4.6,1.4,7.6,5.1,7.6S132.6,19.8,132.6,15.2z"/>
		<path d="M155.1,24.8h-15.4V22l7.7-6.9c2.2-2,3.9-4.2,3.9-6.5V8.1c0-2.8-1.5-4.4-4.3-4.4s-4.2,1.5-5,3.9l-2.5-0.9
			c0.9-3.4,4-5.6,7.5-5.4c4.6,0,7.2,2.8,7.2,6.7c0,3.5-2.1,6.1-5.2,8.8l-6.4,5.6h12.5L155.1,24.8z"/>
		<path d="M160,24.8v-2.4h6.6V3.8h-0.2l-5.8,5.4L159,7.5l6.1-5.7h4.3v20.7h6.1v2.4H160z"/>
	</g>
</g>
</svg>
