<svg xmlns="http://www.w3.org/2000/svg" viewBox="0 0 175.51 25.22"><defs><style>.cls-1{fill:#fff;}</style></defs><g id="Layer_2" data-name="Layer 2"><g id="text"><path class="cls-1" d="M9.85,24.82c-3.54,0-5.22-2.05-5.22-4.92V11.57H0V7.77H3c1.45,0,2-.5,2-2v-4h4.5v6h6.64v3.8H9.52V21h6.64v3.8Z"/><path class="cls-1" d="M20.59.36h4.89V10.87h.2a5.12,5.12,0,0,1,5-3.5c3.27,0,5.55,2.28,5.55,6.41v11H31.36V14.44c0-2.15-1-3.3-2.87-3.3-1.52,0-3,.82-3,2.48v11.2H20.59Z"/><path class="cls-1" d="M41.37,21h5.42V11.57H41.37V7.77H51.69V21h5v3.8H41.37ZM46.3,3.27v-1C46.3,1,47.06,0,49.24,0s2.94,1,2.94,2.31v1c0,1.29-.76,2.32-2.94,2.32S46.3,4.56,46.3,3.27Z"/><path class="cls-1" d="M60.24,24.82v-17h4.89v3.1h.2a5.12,5.12,0,0,1,5-3.5c3.27,0,5.55,2.28,5.55,6.41v11H71V14.44c0-2.15-1-3.3-2.88-3.3-1.52,0-3,.82-3,2.48v11.2Z"/><path class="cls-1" d="M80.07.36H85V14.25h.23l2.28-2.68L91,7.77h5.62l-6.61,6.74,7.31,10.31H91.54l-5-7.53L85,18.91v5.91H80.07Z"/><path class="cls-1" d="M115.5,24.82H100.1V22L107.8,15c2.24-2,3.86-4.17,3.86-6.51v-.4c0-2.78-1.48-4.36-4.33-4.36s-4.23,1.55-5,3.93L99.9,6.78a7.34,7.34,0,0,1,7.5-5.42c4.59,0,7.17,2.77,7.17,6.67,0,3.51-2.08,6.08-5.15,8.76L103,22.41H115.5Z"/><path class="cls-1" d="M119.43,13.29c0-7.54,2.44-11.93,8.06-11.93s8.07,4.39,8.07,11.93-2.45,11.93-8.07,11.93S119.43,20.82,119.43,13.29Zm13.19,1.88V11.4c0-4.62-1.46-7.63-5.13-7.63s-5.12,3-5.12,7.63v3.77c0,4.63,1.45,7.63,5.12,7.63S132.62,19.8,132.62,15.17Z"/><path class="cls-1" d="M155.15,24.82h-15.4V22l7.7-6.94c2.25-2,3.87-4.17,3.87-6.51v-.4c0-2.78-1.49-4.36-4.33-4.36s-4.23,1.55-5,3.93l-2.48-.92a7.36,7.36,0,0,1,7.51-5.42c4.59,0,7.17,2.77,7.17,6.67,0,3.51-2.08,6.08-5.16,8.76l-6.44,5.62h12.52Z"/><path class="cls-1" d="M160,24.82V22.41h6.61V3.8h-.23L160.6,9.22,159,7.47l6.12-5.72h4.33V22.41h6.08v2.41Z"/></g></g></svg>